<?xml version="1.0" encoding="UTF-8"?>
<svg width="15px" height="26px" viewBox="0 0 15 26" version="1.1" xmlns="http://www.w3.org/2000/svg" xmlns:xlink="http://www.w3.org/1999/xlink">
    <!-- Generator: Sketch 43.1 (39012) - http://www.bohemiancoding.com/sketch -->
    <title>Arrow-left - simple-line-icons</title>
    <desc>Created with Sketch.</desc>
    <defs></defs>
    <g id="Page-1" stroke="none" stroke-width="1" fill="none" fill-rule="evenodd" stroke-linecap="round" stroke-linejoin="round">
        <g id="Project-detail" transform="translate(-703.000000, -57.000000)" stroke="#FFFFFF" stroke-width="2" fill="#FFFFFF">
            <g id="back-btn" transform="translate(678.000000, 37.000000)">
                <path d="M38.2390065,21.1455238 C38.344941,21.1455238 38.4433072,21.1644404 38.5341081,21.2022741 C38.624909,21.2401078 38.708142,21.2968576 38.7838094,21.372525 C38.9351443,21.5238599 39.0108106,21.7092424 39.0108106,21.9286779 C39.0108106,22.1481135 38.9351443,22.333496 38.7838094,22.4848309 L28.4325549,32.8360854 L38.6476087,43.0511391 C38.7989436,43.202474 38.8746099,43.3840731 38.8746099,43.595942 C38.8746099,43.8078108 38.7989436,43.98941 38.6476087,44.1407448 C38.4962738,44.2920797 38.3108913,44.367746 38.0914558,44.367746 C37.8720202,44.367746 37.6866377,44.2920797 37.5353028,44.1407448 L26.7754462,33.3808882 C26.6241113,33.2295533 26.548445,33.0479542 26.548445,32.8360854 C26.548445,32.6242165 26.6241113,32.4426174 26.7754462,32.2912825 L37.6942037,21.372525 C37.7698711,21.2968576 37.8568874,21.2401078 37.955255,21.2022741 C38.0536227,21.1644404 38.1482056,21.1455238 38.2390065,21.1455238 Z" id="Arrow-left---simple-line-icons" transform="translate(32.779628, 32.756635) rotate(-180.000000) translate(-32.779628, -32.756635) "></path>
            </g>
        </g>
    </g>
</svg>