<?xml version="1.0" standalone="no"?>
<!DOCTYPE svg PUBLIC "-//W3C//DTD SVG 20010904//EN"
 "http://www.w3.org/TR/2001/REC-SVG-20010904/DTD/svg10.dtd">
<svg version="1.0" xmlns="http://www.w3.org/2000/svg"
 width="1024.000000pt" height="1024.000000pt" viewBox="0 0 1024.000000 1024.000000"
 preserveAspectRatio="xMidYMid meet">
<metadata>
Created by potrace 1.11, written by Peter Selinger 2001-2013
</metadata>
<g transform="translate(0.000000,1024.000000) scale(0.100000,-0.100000)"
fill="#000000" stroke="none">
<path d="M1160 5110 l0 -3970 3970 0 3970 0 0 3970 0 3970 -3970 0 -3970 0 0
-3970z m2268 635 c29 -12 141 -121 427 -415 214 -220 392 -400 396 -400 5 0
175 180 380 400 388 416 404 430 483 430 18 0 51 -10 74 -22 24 -14 197 -184
423 -415 210 -216 385 -393 389 -393 4 0 174 179 378 398 273 294 382 403 411
417 52 23 120 16 164 -16 30 -22 805 -811 909 -925 36 -40 48 -62 53 -97 21
-138 -112 -246 -238 -193 -19 8 -189 173 -421 410 -214 218 -392 396 -396 396
-5 0 -173 -177 -375 -394 -388 -418 -398 -426 -486 -426 -22 0 -54 6 -72 14
-18 8 -109 92 -202 187 -94 96 -270 276 -392 400 l-222 227 -368 -395 c-233
-251 -381 -402 -404 -414 -49 -24 -119 -24 -167 0 -20 11 -93 77 -162 148 -69
70 -243 248 -386 395 l-260 267 -373 -401 c-248 -266 -385 -405 -407 -414
-144 -60 -290 86 -231 229 20 48 879 967 929 995 48 26 93 28 146 7z"/>
</g>
</svg>
